<svg xmlns="http://www.w3.org/2000/svg" viewBox="0 0 100 100" width="100" height="100">
    <!-- Outer frame with Trek-style beveled edges -->
    <rect x="15" y="8" width="70" height="84" rx="4" ry="4" fill="#1a202c" stroke="#2d3748" stroke-width="1"/>

    <!-- Inner screen bezel -->
    <rect x="18" y="11" width="64" height="78" rx="2" ry="2" fill="#2d3748"/>

    <!-- Main screen -->
    <rect x="20" y="13" width="60" height="64" rx="1" ry="1" fill="#0f4c75" stroke="#1e6091" stroke-width="0.5"/>

    <!-- LCARS-style interface elements -->
    <!-- Top status bar -->
    <rect x="22" y="15" width="56" height="3" rx="1" fill="#ff6b35"/>

    <!-- Larger side panels for better visibility -->
    <rect x="22" y="20" width="12" height="18" rx="1" fill="#ffd23f"/>
    <rect x="22" y="40" width="12" height="12" rx="1" fill="#00bfa6"/>
    <rect x="22" y="54" width="12" height="17" rx="1" fill="#ff6b35"/>

    <!-- Main data area with subtle grid (adjusted for larger panels) -->
    <g stroke="#1e6091" stroke-width="0.3" opacity="0.6">
        <line x1="38" y1="22" x2="75" y2="22"/>
        <line x1="38" y1="28" x2="70" y2="28"/>
        <line x1="38" y1="34" x2="73" y2="34"/>
        <line x1="38" y1="40" x2="68" y2="40"/>
        <line x1="38" y1="46" x2="75" y2="46"/>
        <line x1="38" y1="52" x2="65" y2="52"/>
        <line x1="38" y1="58" x2="73" y2="58"/>
        <line x1="38" y1="64" x2="70" y2="64"/>
    </g>

    <!-- Trek-style control buttons at bottom -->
    <rect x="20" y="79" width="12" height="8" rx="2" fill="#2d3748" stroke="#4a5568" stroke-width="0.5"/>
    <rect x="34" y="79" width="12" height="8" rx="2" fill="#2d3748" stroke="#4a5568" stroke-width="0.5"/>
    <rect x="48" y="79" width="12" height="8" rx="2" fill="#2d3748" stroke="#4a5568" stroke-width="0.5"/>
    <rect x="62" y="79" width="12" height="8" rx="2" fill="#2d3748" stroke="#4a5568" stroke-width="0.5"/>

    <!-- Small status indicators -->
    <circle cx="26" cy="83" r="1.5" fill="#00bfa6"/>
    <circle cx="40" cy="83" r="1.5" fill="#ffd23f"/>
    <circle cx="54" cy="83" r="1.5" fill="#ff6b35"/>
    <circle cx="68" cy="83" r="1.5" fill="#00bfa6"/>
</svg>
